# xmcd
#
# Track frame offsets: 
#        150
#        24080
#        40858
#        69279
#        78761
#        96890
#
# Disc length: 1572 seconds
#
# Revision: 0
# Processed by: cddbd v1.5.1PL0 Copyright (c) Steve Scherf et al.
# Submitted via: ExactAudioCopy v0.95a5
#
DISCID=36062206
DTITLE=Slevensnevels - Als men het niet goed meer weet
DYEAR=2004
DGENRE=National Folk
TTITLE0=Ik wacht nooit meer
TTITLE1=Hoop op betere tijden
TTITLE2=Groter dan met twee
TTITLE3=Ochtend in mijn hoofd
TTITLE4=Februari
TTITLE5=De sleutel van de nacht
EXTD=
EXTT0=
EXTT1=
EXTT2=
EXTT3=
EXTT4=
EXTT5=
PLAYORDER=
